<svg width="35" height="35" viewBox="0 0 35 35" fill="none" xmlns="http://www.w3.org/2000/svg">
<path fill-rule="evenodd" clip-rule="evenodd" d="M22.2499 18.6196L20.2993 20.5711C19.5567 21.3129 18.5497 21.7301 17.4999 21.7301C16.4502 21.7301 15.4432 21.3129 14.7006 20.5711L12.7499 18.6196L2.22632 29.1433C2.54298 29.2945 2.89211 29.3752 3.24994 29.3752H31.7499C32.1078 29.3752 32.4569 29.2945 32.7736 29.1433L22.2499 18.6196Z" fill="white"/>
<path fill-rule="evenodd" clip-rule="evenodd" d="M33.893 6.97656C34.0442 7.29322 34.125 7.64236 34.125 8.00019V27.0002C34.125 27.358 34.0442 27.7072 33.893 28.0238L23.3694 17.5002L33.893 6.97656Z" fill="white"/>
<path fill-rule="evenodd" clip-rule="evenodd" d="M1.10696 6.97656L11.6306 17.5002L1.10696 28.0238C0.955751 27.7072 0.875 27.358 0.875 27.0002C0.875 22.133 0.875 12.8674 0.875 8.00019C0.875 7.64236 0.955751 7.29322 1.10696 6.97656Z" fill="white"/>
<path fill-rule="evenodd" clip-rule="evenodd" d="M32.7736 5.85696C32.4569 5.70575 32.1078 5.625 31.7499 5.625C25.1261 5.625 9.87382 5.625 3.24994 5.625C2.89211 5.625 2.54298 5.70575 2.22632 5.85696L15.8208 19.4507C16.2657 19.8964 16.8698 20.1465 17.4999 20.1465C18.1301 20.1465 18.7341 19.8964 19.1791 19.4507L32.7736 5.85696Z" fill="white"/>
</svg>
