<svg width="35" height="35" viewBox="0 0 35 35" fill="none" xmlns="http://www.w3.org/2000/svg">
<path d="M17.5 22.6607C19.0368 22.6607 20.2825 21.4149 20.2825 19.8782C20.2825 18.3415 19.0368 17.0957 17.5 17.0957C15.9633 17.0957 14.7175 18.3415 14.7175 19.8782C14.7175 21.4149 15.9633 22.6607 17.5 22.6607Z" fill="white"/>
<path d="M31.0679 9.74512H3.93198C3.61886 9.74566 3.31872 9.87028 3.09731 10.0917C2.8759 10.3131 2.75127 10.6132 2.75073 10.9264V28.8256C2.75014 29.1396 2.87423 29.4409 3.09573 29.6634C3.31722 29.886 3.61801 30.0115 3.93198 30.0123H31.0679C31.3819 30.0115 31.6827 29.886 31.9042 29.6634C32.1257 29.4409 32.2498 29.1396 32.2492 28.8256V10.9264C32.2486 10.6132 32.124 10.3131 31.9026 10.0917C31.6812 9.87028 31.381 9.74566 31.0679 9.74512ZM23.9715 20.6066C23.9715 20.6643 23.9522 20.7204 23.9167 20.7659C23.8812 20.8114 23.8314 20.8437 23.7754 20.8577L22.4646 21.1857C22.3422 21.6514 22.1546 22.0974 21.9072 22.5105L22.5956 23.6579C22.6253 23.7074 22.6376 23.7654 22.6306 23.8227C22.6235 23.88 22.5975 23.9333 22.5567 23.9742L21.5612 24.9696C21.5204 25.0105 21.4671 25.0365 21.4098 25.0435C21.3525 25.0506 21.2945 25.0383 21.245 25.0086L20.0856 24.313C19.67 24.5559 19.2222 24.7388 18.7554 24.8562L18.4307 26.1539C18.4167 26.2099 18.3843 26.2597 18.3388 26.2952C18.2933 26.3307 18.2373 26.35 18.1796 26.35H16.7717C16.714 26.35 16.6579 26.3307 16.6124 26.2952C16.5669 26.2597 16.5346 26.2099 16.5206 26.1539L16.1922 24.8428C15.7267 24.7205 15.2809 24.5329 14.868 24.2856L13.7206 24.974C13.6711 25.0037 13.613 25.016 13.5557 25.009C13.4984 25.0019 13.4452 24.9759 13.4043 24.9351L12.4088 23.9396C12.368 23.8988 12.342 23.8455 12.335 23.7882C12.3279 23.7309 12.3402 23.6729 12.3699 23.6234L13.0652 22.4639C12.8223 22.0484 12.6394 21.6006 12.522 21.1339L11.2243 20.8092C11.1683 20.7952 11.1186 20.7628 11.0831 20.7173C11.0476 20.6718 11.0283 20.6157 11.0283 20.558V19.1502C11.0283 19.0925 11.0476 19.0364 11.0831 18.9909C11.1186 18.9454 11.1683 18.9131 11.2243 18.8991L12.5354 18.5709C12.6578 18.1053 12.8454 17.6594 13.0927 17.2465L12.4042 16.0991C12.3745 16.0496 12.3622 15.9916 12.3693 15.9343C12.3763 15.877 12.4023 15.8237 12.4432 15.7828L13.4386 14.7874C13.4795 14.7465 13.5328 14.7205 13.5901 14.7135C13.6474 14.7064 13.7054 14.7187 13.7549 14.7484L14.9142 15.4438C15.3298 15.2008 15.7776 15.0179 16.2444 14.9005L16.5691 13.6029C16.5831 13.5468 16.6154 13.4971 16.6609 13.4616C16.7064 13.4261 16.7625 13.4068 16.8202 13.4068H18.2281C18.2858 13.4068 18.3419 13.4261 18.3874 13.4616C18.4329 13.4971 18.4652 13.5468 18.4792 13.6029L18.8074 14.9139C19.2729 15.0362 19.7188 15.2238 20.1318 15.4711L21.2792 14.7828C21.3287 14.7531 21.3867 14.7408 21.444 14.7478C21.5013 14.7549 21.5546 14.7809 21.5954 14.8217L22.5909 15.8172C22.6317 15.858 22.6577 15.9113 22.6648 15.9686C22.6719 16.0259 22.6595 16.0839 22.6298 16.1334L21.9345 17.2927C22.1774 17.7083 22.3603 18.1561 22.4778 18.6229L23.7754 18.9476C23.8314 18.9616 23.8812 18.9939 23.9167 19.0394C23.9522 19.0849 23.9715 19.141 23.9715 19.1987V20.6066Z" fill="white"/>
<path d="M32.2492 8.26855V8.98496C31.8943 8.7657 31.4851 8.65014 31.0679 8.65137H3.93198C3.51482 8.65014 3.10563 8.7657 2.75073 8.98496V6.13574C2.75071 5.98492 2.7804 5.83557 2.83811 5.69623C2.89581 5.55688 2.98041 5.43027 3.08705 5.32362C3.1937 5.21698 3.32031 5.13239 3.45966 5.07468C3.599 5.01697 3.74835 4.98728 3.89917 4.9873H12.0695C12.2331 4.98868 12.3945 5.02445 12.5434 5.09229C12.6922 5.16012 12.8252 5.25851 12.9335 5.38105L14.2789 6.92324C14.3319 6.98587 14.3981 7.036 14.4728 7.07004C14.5475 7.10408 14.6288 7.12119 14.7109 7.12014H31.1007C31.2516 7.12012 31.4009 7.14981 31.5402 7.20752C31.6796 7.26522 31.8062 7.34981 31.9128 7.45645C32.0195 7.5631 32.1041 7.68971 32.1618 7.82905C32.2195 7.96839 32.2492 8.11774 32.2492 8.26855Z" fill="white"/>
</svg>
