<svg width="35" height="35" viewBox="0 0 35 35" fill="none" xmlns="http://www.w3.org/2000/svg">
<g clip-path="url(#clip0_40_16)">
<path d="M17.5 12.373C15.2379 12.373 13.3984 14.2125 13.3984 16.4746C13.3984 18.7367 15.2379 20.5762 17.5 20.5762C19.7621 20.5762 21.6016 18.7367 21.6016 16.4746C21.6016 14.2125 19.7621 12.373 17.5 12.373Z" fill="white"/>
<path d="M34.1428 14.4378L31.4189 13.9952C31.0774 12.6353 30.5406 11.3436 29.8187 10.139L31.3848 7.945C31.6762 7.53744 31.6302 6.97867 31.2756 6.62423L28.3757 3.72429C28.0192 3.36882 27.4615 3.32172 27.0549 3.61512L24.8609 5.18123C23.6563 4.45922 22.3645 3.92253 21.0047 3.58107L20.5621 0.85709C20.4801 0.36251 20.0525 0 19.5508 0H15.4492C14.9475 0 14.5199 0.36251 14.4378 0.857158L13.9952 3.58114C12.6353 3.9226 11.3436 4.45936 10.139 5.1813L7.945 3.61519C7.53744 3.32179 6.97771 3.36882 6.62423 3.72436L3.72429 6.62423C3.36978 6.97874 3.32377 7.53744 3.61512 7.945L5.18123 10.139C4.45922 11.3436 3.92253 12.6354 3.58107 13.9952L0.85709 14.4378C0.36251 14.5199 0 14.9475 0 15.4492V19.5508C0 20.0525 0.36251 20.4801 0.857158 20.5622L3.58114 21.0048C3.9226 22.3647 4.45936 23.6564 5.1813 24.861L3.61519 27.055C3.32377 27.4626 3.36984 28.0213 3.72436 28.3758L6.6243 31.2757C6.97778 31.6292 7.53751 31.6742 7.94507 31.3849L10.1391 29.8188C11.3437 30.5408 12.6355 31.0775 13.9953 31.4189L14.4379 34.1429C14.5199 34.6375 14.9475 35 15.4492 35H19.5508C20.0525 35 20.4801 34.6375 20.5622 34.1428L21.0048 31.4189C22.3647 31.0774 23.6564 30.5406 24.861 29.8187L27.055 31.3848C27.4615 31.6742 28.0193 31.6291 28.3758 31.2756L31.2757 28.3757C31.6302 28.0212 31.6762 27.4625 31.3849 27.0549L29.8188 24.8609C30.5408 23.6563 31.0775 22.3645 31.4189 21.0047L34.1429 20.5621C34.6375 20.4801 35 20.0525 35 19.5508V15.4492C35 14.9475 34.6375 14.5199 34.1428 14.4378ZM17.5 28.7793C11.2806 28.7793 6.2207 23.7194 6.2207 17.5C6.2207 11.2806 11.2806 6.2207 17.5 6.2207C23.7194 6.2207 28.7793 11.2806 28.7793 17.5C28.7793 23.7194 23.7194 28.7793 17.5 28.7793Z" fill="white"/>
<path d="M22.2365 20.3525C21.1074 21.7289 19.4151 22.6267 17.4999 22.6267C15.5847 22.6267 13.8924 21.7289 12.7632 20.3525C11.7803 21.2237 11.0633 22.3658 10.6677 23.6473C12.3582 25.5243 14.7808 26.7283 17.4999 26.7283C20.219 26.7283 22.6416 25.5243 24.332 23.6473C23.9365 22.3658 23.2195 21.2237 22.2365 20.3525Z" fill="white"/>
</g>
<defs>
<clipPath id="clip0_40_16">
<rect width="35" height="35" fill="white"/>
</clipPath>
</defs>
</svg>
